HIERARCHY
ROOT Pelvis
{
	OFFSET 0.000000 0.000000 0.000000
	CHANNELS 6 Xposition Yposition Zposition Zrotation Yrotation Xrotation 
	JOINT Left_hip
	{
		OFFSET 0.067986 -0.089946 -0.007639
		CHANNELS 3 Zrotation Yrotation Xrotation
		JOINT Left_knee
		{
			OFFSET 0.036308 -0.388288 -0.004016
			CHANNELS 3 Zrotation Yrotation Xrotation
			JOINT Left_ankle
			{
				OFFSET -0.012264 -0.413250 -0.042878
				CHANNELS 3 Zrotation Yrotation Xrotation
				JOINT Left_foot
				{
					OFFSET 0.024043 -0.058563 0.118570
					CHANNELS 3 Zrotation Yrotation Xrotation
					End Site
					{
						OFFSET 0.000000 0.000000 0.000000
					}
				}
			}
		}
	}
	JOINT Right_hip
	{
		OFFSET -0.065648 -0.089374 -0.003858
		CHANNELS 3 Zrotation Yrotation Xrotation
		JOINT Right_knee
		{
			OFFSET -0.042132 -0.395021 -0.006361
			CHANNELS 3 Zrotation Yrotation Xrotation
			JOINT Right_ankle
			{
				OFFSET 0.014805 -0.413264 -0.041054
				CHANNELS 3 Zrotation Yrotation Xrotation
				JOINT Right_foot
				{
					OFFSET -0.021758 -0.049013 0.121832
					CHANNELS 3 Zrotation Yrotation Xrotation
					End Site
					{
						OFFSET 0.000000 0.000000 0.000000
					}
				}
			}
		}
	}
	JOINT Spine1
	{
		OFFSET -0.002755 0.104406 -0.022277
		CHANNELS 3 Zrotation Yrotation Xrotation
		JOINT Spine2
		{
			OFFSET 0.004136 0.129393 -0.002186
			CHANNELS 3 Zrotation Yrotation Xrotation
			JOINT Spine3
			{
				OFFSET 0.001906 0.049304 0.025578
				CHANNELS 3 Zrotation Yrotation Xrotation
				JOINT Neck
				{
					OFFSET -0.004620 0.210958 -0.044063
					CHANNELS 3 Zrotation Yrotation Xrotation
					JOINT Head
					{
						OFFSET 0.003833 0.067393 0.052435
						CHANNELS 3 Zrotation Yrotation Xrotation
						End Site
						{
							OFFSET 0.000000 0.000000 0.000000
						}
					}
				}
				JOINT Left_collar
				{
					OFFSET 0.070771 0.116689 -0.037192
					CHANNELS 3 Zrotation Yrotation Xrotation
					JOINT Left_shoulder
					{
						OFFSET 0.080652 0.031596 -0.005617
						CHANNELS 3 Zrotation Yrotation Xrotation
						JOINT Left_elbow
						{
							OFFSET 0.262654 -0.015020 -0.027939
							CHANNELS 3 Zrotation Yrotation Xrotation
							JOINT Left_wrist
							{
								OFFSET 0.250438 0.010062 -0.000990
								CHANNELS 3 Zrotation Yrotation Xrotation
								JOINT Left_palm
								{
									OFFSET 0.081198 -0.010037 -0.013706
									CHANNELS 3 Zrotation Yrotation Xrotation
									End Site
									{
										OFFSET 0.000000 0.000000 0.000000
									}
								}
							}
						}
					}
				}
				JOINT Right_collar
				{
					OFFSET -0.072972 0.115556 -0.040762
					CHANNELS 3 Zrotation Yrotation Xrotation
					JOINT Right_shoulder
					{
						OFFSET -0.082917 0.031841 -0.006673
						CHANNELS 3 Zrotation Yrotation Xrotation
						JOINT Right_elbow
						{
							OFFSET -0.252882 -0.013790 -0.020410
							CHANNELS 3 Zrotation Yrotation Xrotation
							JOINT Right_wrist
							{
								OFFSET -0.255570 0.009163 -0.005138
								CHANNELS 3 Zrotation Yrotation Xrotation
								JOINT Right_palm
								{
									OFFSET -0.080804 -0.007282 -0.010415
									CHANNELS 3 Zrotation Yrotation Xrotation
									End Site
									{
										OFFSET 0.000000 0.000000 0.000000
									}
								}
							}
						}
					}
				}
			}
		}
	}
}
MOTION
Frames: 5
Frame Time: 0.100000
-0.840196 -0.232578 1.166784 141.254697 70.988716 -40.914380 4.423606 3.449466 -17.228692 -11.729405 -5.594042 20.919786 -3.717301 4.169255 -7.795136 7.366206 5.116735 -13.472224 -6.280648 -8.638524 -19.424792 9.845454 -6.141745 41.307689 7.095797 -7.818150 -12.815338 -12.526476 9.805869 2.235039 1.818459 3.936949 16.951157 5.796791 -1.489056 9.861600 2.805939 3.965213 -3.149734 -5.851401 -22.569432 -9.757147 4.746220 -17.688507 -9.162825 -14.010874 -8.231743 1.193064 -56.743649 -19.007771 27.805889 -81.482078 -76.770229 94.588142 -0.537136 -7.598942 -11.867250 -22.691452 -15.108159 -23.270716 20.784413 19.371165 2.096486 31.471762 22.732609 -1.814483 -20.766166 24.851043 -46.680435 -8.088076 0.561270 -33.497284 20.119122 10.570918 -9.098585 
-0.816935 -0.219301 1.136066 150.765259 68.696047 -31.980627 2.450519 4.867029 -19.964723 -12.000097 -0.773112 22.032716 -5.147639 4.376501 -7.543847 9.507284 4.145464 -12.960766 -5.959537 -9.327371 -12.660049 10.783799 -4.324536 33.549558 4.514376 -7.525534 -17.418046 -9.567508 10.303795 4.868239 4.655795 5.318209 16.578251 4.898202 -1.092435 11.327779 2.435013 4.911596 -3.628012 -5.621259 -21.842649 -11.173609 2.349917 -17.257753 -11.202685 -15.297257 -8.574477 1.588376 -55.560006 -17.304496 26.842339 -79.264320 -77.211824 92.826613 0.032350 -8.809562 -10.151206 -21.955567 -15.943539 -24.592619 20.219263 21.690233 3.096642 26.057268 24.178593 -4.776580 -20.212181 24.498170 -47.767036 -9.906181 1.614834 -31.191159 19.132273 10.974520 -10.949520 
-0.793098 -0.202101 1.097869 158.199314 63.124462 -27.312903 3.557111 7.537488 -23.956474 -13.053658 3.414305 30.481081 -7.734107 3.006840 -8.913416 11.396447 4.270715 -14.737461 -6.254193 -6.872332 -12.187055 10.046769 0.179580 30.745912 3.452126 -7.347951 -21.013575 -9.389986 9.993523 6.140492 8.931679 4.196757 19.904362 5.376449 -0.802952 10.954312 2.961975 5.825413 -3.133669 -5.370487 -19.894819 -10.512631 0.095407 -15.326648 -13.761724 -15.491919 -8.641725 1.175674 -57.517836 -15.085318 25.365244 -72.918825 -79.462743 87.094700 2.105857 -8.538982 -12.184294 -21.883425 -15.986859 -22.790222 18.344547 24.698502 3.237038 20.687365 29.155111 -7.605243 -17.387063 23.114824 -44.284818 -12.632768 1.415776 -27.349014 17.869763 10.674053 -11.272218 
-0.781071 -0.196379 1.048240 164.975552 57.094536 -22.933230 5.033204 7.367069 -25.104270 -12.537065 4.510743 39.442073 -7.140756 3.069332 -8.347266 10.334363 5.100745 -17.093150 -9.092392 -5.947623 -14.386425 9.892035 3.630428 30.546130 5.092345 -3.950887 -15.854877 -12.171549 8.576755 2.149882 9.933017 2.932324 21.740109 7.043098 -1.670569 10.581250 3.869098 5.812570 -2.923258 -4.501634 -19.693260 -9.333410 0.954899 -12.807867 -14.536059 -14.760708 -10.538153 1.604119 -59.313838 -15.111057 24.949265 -63.315538 -80.174659 76.949152 7.096248 -7.236636 -18.197512 -21.339368 -13.613618 -18.245660 16.696306 26.936156 2.469467 20.456973 34.586916 -7.790995 -14.514613 21.083675 -40.379946 -16.216266 -0.041857 -23.281475 16.948301 9.407236 -10.339879 
-0.781558 -0.195715 0.995499 169.727135 48.275803 -19.079847 9.280898 7.409624 -21.226620 -11.166979 2.624300 47.440497 -5.849668 2.086932 -7.611519 6.553682 6.698636 -20.618111 -10.851491 -4.263079 -14.949092 9.214092 8.033550 22.844497 7.831116 -0.189301 -8.149198 -15.112443 6.225875 -1.476496 8.889837 2.117986 20.793740 8.291959 -2.362009 9.538624 4.179523 5.368125 -3.026763 -4.421711 -17.289337 -6.606308 2.107372 -11.798006 -13.485687 -12.124444 -12.401884 1.314187 -61.323303 -16.399015 26.170170 -48.188449 -77.190354 58.899294 5.719524 -7.952691 -27.049480 -20.589441 -10.035945 -13.782772 14.813109 28.340228 1.365155 28.236530 38.826106 -2.019638 -11.330776 18.209096 -34.649001 -14.009507 -1.196898 -22.878079 16.365164 7.244721 -8.274920 
